<?xml version="1.0" encoding="UTF-8" standalone="no"?>
<!-- Created with Inkscape (http://www.inkscape.org/) -->

<svg
   width="720mm"
   height="200mm"
   viewBox="0 0 720 200"
   version="1.1"
   id="svg1"
   xml:space="preserve"
   inkscape:version="1.3.2 (1:1.3.2+202311252150+091e20ef0f)"
   sodipodi:docname="banner.svg"
   xmlns:inkscape="http://www.inkscape.org/namespaces/inkscape"
   xmlns:sodipodi="http://sodipodi.sourceforge.net/DTD/sodipodi-0.dtd"
   xmlns="http://www.w3.org/2000/svg"
   xmlns:svg="http://www.w3.org/2000/svg"><sodipodi:namedview
     id="namedview1"
     pagecolor="#a5a5a5"
     bordercolor="#000000"
     borderopacity="0.43137255"
     inkscape:showpageshadow="2"
     inkscape:pageopacity="0.0"
     inkscape:pagecheckerboard="false"
     inkscape:deskcolor="#d1d1d1"
     inkscape:document-units="mm"
     inkscape:zoom="0.25"
     inkscape:cx="1342"
     inkscape:cy="226"
     inkscape:window-width="1920"
     inkscape:window-height="1019"
     inkscape:window-x="0"
     inkscape:window-y="0"
     inkscape:window-maximized="1"
     inkscape:current-layer="layer1" /><defs
     id="defs1" /><g
     inkscape:label="Layer 1"
     inkscape:groupmode="layer"
     id="layer1"><rect
       style="fill:#ffffff;fill-opacity:1;fill-rule:evenodd;stroke:#ffffff;stroke-width:40;stroke-linecap:round;stroke-linejoin:round;stroke-miterlimit:10;stroke-dasharray:none;stroke-opacity:1"
       id="rect2"
       width="666.01831"
       height="143.61577"
       x="26.990845"
       y="28.192116" /><path
       fill="#9b9b9a"
       stroke="none"
       d="m 170.81288,150.70179 h 7.04859 c 4.87457,0 7.66202,-2.9061 7.66202,-7.68887 V 141.92114 20.677488 H 38.41683 v 38.328007"
       id="path1"
       style="stroke-width:2.88676" /><path
       fill="#9b9b9a"
       stroke="none"
       d="m 171.08972,150.70179 h 6.9158 c 4.78306,0 7.51797,-2.9061 7.51797,-7.68887 V 141.92114 20.677488 H 41.185804 v 46.632909"
       id="path2"
       style="stroke-width:2.88676" /><path
       fill="#9b9b9a"
       stroke="none"
       stroke-linecap="round"
       stroke-linejoin="round"
       stroke-miterlimit="10"
       stroke-width="5.7735"
       d="m 171.08972,150.70179 h 6.9158 c 4.78306,0 7.51797,-2.9061 7.51797,-7.68887 V 141.92114 20.677488 H 41.185804"
       id="path3" /><rect
       x="26.752037"
       y="35.231636"
       width="144.33769"
       height="115.47015"
       fill="#d0cfce"
       stroke="none"
       stroke-linecap="round"
       stroke-linejoin="round"
       stroke-miterlimit="10"
       stroke-width="5.7735"
       id="rect3" /><path
       fill="none"
       stroke="#000000"
       stroke-linecap="round"
       stroke-linejoin="round"
       stroke-miterlimit="10"
       stroke-width="5.7735"
       d="m 171.08972,150.70179 h 6.9158 c 4.78306,0 7.51797,-2.9061 7.51797,-7.68887 V 141.92114 20.677488 H 41.185804"
       id="path4" /><rect
       x="26.752037"
       y="35.231636"
       width="144.33769"
       height="115.47015"
       fill="none"
       stroke="#000000"
       stroke-linecap="round"
       stroke-linejoin="round"
       stroke-miterlimit="10"
       stroke-width="5.7735"
       id="rect4" /><line
       x1="41.185806"
       x2="156.65596"
       y1="52.548698"
       y2="52.548698"
       fill="none"
       stroke="#000000"
       stroke-linecap="round"
       stroke-linejoin="round"
       stroke-miterlimit="10"
       stroke-width="5.7735"
       id="line5" /><line
       x1="114.99548"
       x2="156.65596"
       y1="70.197144"
       y2="70.197144"
       fill="none"
       stroke="#000000"
       stroke-linecap="round"
       stroke-linejoin="round"
       stroke-miterlimit="10"
       stroke-width="5.7735"
       id="line6" /><line
       x1="114.99548"
       x2="156.65596"
       y1="88.576523"
       y2="88.576523"
       fill="none"
       stroke="#000000"
       stroke-linecap="round"
       stroke-linejoin="round"
       stroke-miterlimit="10"
       stroke-width="5.7735"
       id="line7" /><line
       x1="114.99548"
       x2="156.65596"
       y1="106.95564"
       y2="106.95564"
       fill="none"
       stroke="#000000"
       stroke-linecap="round"
       stroke-linejoin="round"
       stroke-miterlimit="10"
       stroke-width="5.7735"
       id="line8" /><line
       x1="114.99548"
       x2="156.65596"
       y1="125.33472"
       y2="125.33472"
       fill="none"
       stroke="#000000"
       stroke-linecap="round"
       stroke-linejoin="round"
       stroke-miterlimit="10"
       stroke-width="5.7735"
       id="line9" /><path
       fill="#f1b31c"
       d="M 97.45759,125.86172 H 42.661275 c -0.304134,-9.9e-4 -0.59554,-0.12699 -0.810586,-0.35069 -0.215046,-0.22357 -0.336248,-0.52653 -0.33708,-0.84272 V 67.699714 c 9.51e-4,-0.31619 0.122153,-0.619149 0.337318,-0.84272 0.215046,-0.223571 0.506452,-0.349577 0.810586,-0.350443 H 97.45783 c 0.30413,9.89e-4 0.59553,0.126996 0.81058,0.35069 0.21505,0.223571 0.33625,0.52653 0.33708,0.84272 v 56.968599 c -9.5e-4,0.31619 -0.12215,0.61915 -0.33732,0.84272 -0.21504,0.22357 -0.50645,0.34958 -0.81058,0.35044 z"
       id="path1-6"
       style="fill:#1ca1f1;fill-opacity:1;stroke-width:1.21276" /><path
       fill="none"
       stroke="#000000"
       stroke-linejoin="round"
       stroke-miterlimit="10"
       stroke-width="2.42552"
       d="M 97.45759,125.86172 H 42.661275 c -0.304134,-9.9e-4 -0.59554,-0.12699 -0.810586,-0.35069 -0.215046,-0.22357 -0.336248,-0.52653 -0.33708,-0.84272 V 67.699714 c 9.51e-4,-0.31619 0.122153,-0.619149 0.337318,-0.84272 0.215046,-0.223571 0.506452,-0.349577 0.810586,-0.350443 H 97.45783 c 0.30413,9.89e-4 0.59553,0.126996 0.81058,0.35069 0.21505,0.223571 0.33625,0.52653 0.33708,0.84272 v 56.968599 c -9.5e-4,0.31619 -0.12215,0.61915 -0.33732,0.84272 -0.21504,0.22357 -0.50645,0.34958 -0.81058,0.35044 z"
       id="path4-5" /><circle
       style="fill:#ffffff;fill-opacity:1;fill-rule:evenodd;stroke:#000000;stroke-width:1.5;stroke-linecap:round;stroke-linejoin:round;stroke-miterlimit:10;stroke-dasharray:none;stroke-opacity:1"
       id="path6"
       cx="70.059563"
       cy="96.184135"
       r="21.479719" /><circle
       cx="70.059563"
       cy="96.184135"
       fill="#ffffff"
       id="circle1"
       style="fill:#1ca1f1;fill-opacity:1;stroke:#000000;stroke-width:1.5;stroke-dasharray:none;stroke-opacity:1"
       r="14.963189" /><rect
       x="41.185806"
       y="67.310394"
       width="57.747486"
       height="57.747486"
       fill="none"
       stroke="#000000"
       stroke-linecap="round"
       stroke-linejoin="round"
       stroke-miterlimit="10"
       stroke-width="5.7735"
       id="rect5"
       style="stroke-width:5;stroke-linecap:round;stroke-linejoin:round;stroke-miterlimit:10;stroke-dasharray:none" /><g
       id="g3"
       transform="matrix(1.2657075,0,0,1.2657075,140.12205,107.65112)"><g
         id="color-6"><circle
           cx="36.051998"
           cy="34.906399"
           r="5.6135998"
           fill="#ffffff"
           id="circle1-2" /><path
           fill="#d0cfce"
           d="m 51.2579,29.8111 c 0,0 -1.8149,-0.4504 -1.0786,-2.0742 l 4.5037,-7.4841 -3.6502,-3.417 -0.73,-0.6833 -7.1357,4.6903 c -0.9431,0.4213 -2.037,-0.1166 -2.2794,-1.1205 l -1.887,-7.8158 h -6 l -1.8809,7.7858 c -0.2389,0.9894 -1.3101,1.5798 -2.2425,1.1716 -0.0148,-0.0063 -0.0296,-0.0131 -0.0445,-0.0198 l -7.1357,-4.6904 -0.73,0.6833 -3.6502,3.417 4.5037,7.4841 c 0.7364,1.6238 -1.0785,2.0743 -1.0785,2.0743 l -8.4766,2.1074 0.1649,4.9972 0.033,0.9995 8.3622,1.7291 c 0.952,0.3641 1.3501,1.4954 0.8358,2.3755 l -0.0328,0.0562 -4.5037,7.484 3.6502,3.417 0.73,0.6833 7.1357,-4.6902 c 0.0149,-0.0068 0.03,-0.0129 0.0445,-0.02 0,0 0.0115,-0.0042 0.0332,-0.0111 1.1606,-0.3768 2.393,0.3463 2.6794,1.5325 l 1.7947,7.4336 h 6 l 1.887,-7.8158 c 0.2424,-1.0039 1.3364,-1.5417 2.2794,-1.1205 l 7.1357,4.6903 0.73,-0.6833 3.6502,-3.417 -4.5037,-7.4841 -0.0328,-0.0562 c -0.5143,-0.88 -0.1162,-2.0112 0.8358,-2.3755 l 8.3622,-1.729 0.033,-0.9995 0.1649,-4.9973 z M 36,44.9064 c -5.5228,0 -10,-4.4772 -10,-10 0,-5.5228 4.4772,-10 10,-10 5.5228,0 10,4.4772 10,10 0,5.5228 -4.4772,10 -10,10 z"
           id="path1-9" /><path
           fill="#9b9b9a"
           d="m 36,24.9064 c -5.5228,0 -10,4.4772 -10,10 0,5.5228 4.4772,10 10,10 5.5228,0 10,-4.4772 10,-10 0,-5.5228 -4.4772,-10 -10,-10 z m 0,15 c -2.7614,0 -5,-2.2386 -5,-5 0,-2.7614 2.2386,-5 5,-5 2.7614,0 5,2.2385 5,5 0,2.7615 -2.2386,5 -5,5 z"
           id="path2-1" /></g><g
         id="line-2"><circle
           cx="36"
           cy="34.906399"
           r="5"
           fill="none"
           stroke="#000000"
           stroke-linecap="round"
           stroke-linejoin="round"
           stroke-width="2"
           id="circle2" /><circle
           cx="36"
           cy="34.906399"
           r="10"
           fill="none"
           stroke="#000000"
           stroke-linecap="round"
           stroke-linejoin="round"
           stroke-width="2"
           id="circle3" /><path
           fill="none"
           stroke="#000000"
           stroke-linecap="round"
           stroke-linejoin="round"
           stroke-width="2"
           d="m 31.1191,19.6921 c -0.2389,0.9895 -1.31,1.5799 -2.2425,1.1717 -0.0147,-0.0065 -0.0296,-0.0131 -0.0445,-0.0199 l -7.1357,-4.6903 -0.73,0.6834 -3.6502,3.417 4.5037,7.484 c 0.7363,1.6239 -1.0785,2.0744 -1.0785,2.0744 l -8.4766,2.1074 0.1649,4.9973 0.033,0.9995 8.3622,1.7291 v 0 c 0.9521,0.3641 1.3501,1.4954 0.8359,2.3754 l -0.0328,0.0562 -4.5037,7.484 3.6502,3.417 0.73,0.6834 7.1357,-4.6903 c 0.0149,-0.0068 0.03,-0.0129 0.0445,-0.0199 0,0 0.0116,-0.0042 0.0332,-0.0112 1.1606,-0.3768 2.393,0.3463 2.6794,1.5324 l 1.7947,7.4336 h 6 l 1.8869,-7.8157 c 0.2424,-1.004 1.3364,-1.5418 2.2794,-1.1205 v 0 l 7.1357,4.6903 0.73,-0.6834 3.6502,-3.417 -4.5037,-7.484 -0.0328,-0.0562 c -0.5143,-0.8801 -0.1162,-2.0113 0.8359,-2.3755 v 0 l 8.3622,-1.7291 0.033,-0.9995 0.1649,-4.9973 -8.4766,-2.1074 c 0,0 -1.8149,-0.4505 -1.0785,-2.0744 l 4.5037,-7.484 -3.6502,-3.417 -0.73,-0.6834 -7.1357,4.6903 v 0 c -0.943,0.4212 -2.037,-0.1166 -2.2794,-1.1206 L 39,11.9064 h -6 z"
           id="path3-7" /></g></g><circle
       style="fill:#ffffff;fill-opacity:1;fill-rule:evenodd;stroke:#000000;stroke-width:1.3;stroke-linecap:round;stroke-linejoin:round;stroke-miterlimit:10;stroke-dasharray:none;stroke-opacity:1"
       id="path7"
       cx="70.059547"
       cy="96.184135"
       r="5.0691147" /><text
       xml:space="preserve"
       style="font-size:93.4861px;font-family:'Noto Sans';-inkscape-font-specification:'Noto Sans';fill:#000000;fill-opacity:1;fill-rule:evenodd;stroke:none;stroke-width:3.66324;stroke-linecap:round;stroke-linejoin:round;stroke-miterlimit:10;stroke-dasharray:none"
       x="221.1344"
       y="105.58721"
       id="text1"><tspan
         sodipodi:role="line"
         id="tspan1"
         style="font-size:93.4861px;fill:#000000;fill-opacity:1;stroke:none;stroke-width:3.66324"
         x="221.1344"
         y="105.58721">listparser</tspan></text><text
       xml:space="preserve"
       style="font-size:25.4px;font-family:'Noto Sans';-inkscape-font-specification:'Noto Sans';fill:#000000;fill-opacity:1;fill-rule:evenodd;stroke:none;stroke-width:2;stroke-linecap:round;stroke-linejoin:round;stroke-miterlimit:10;stroke-dasharray:none"
       x="226.61691"
       y="159.21033"
       id="text2"><tspan
         sodipodi:role="line"
         id="tspan2"
         style="font-size:25.4px;stroke-width:2"
         x="226.61691"
         y="159.21033">Parse OPML subscription lists in Python</tspan></text></g></svg>
