<?xml version="1.0" encoding="UTF-8" standalone="no"?>
<!-- Created with Inkscape (http://www.inkscape.org/) -->

<svg
   width="200mm"
   height="170mm"
   viewBox="0 0 200 170"
   version="1.1"
   id="svg1"
   xml:space="preserve"
   inkscape:version="1.3.2 (1:1.3.2+202311252150+091e20ef0f)"
   sodipodi:docname="logo.svg"
   inkscape:export-filename="../docs/_static/logo.png"
   inkscape:export-xdpi="25.574528"
   inkscape:export-ydpi="25.574528"
   xmlns:inkscape="http://www.inkscape.org/namespaces/inkscape"
   xmlns:sodipodi="http://sodipodi.sourceforge.net/DTD/sodipodi-0.dtd"
   xmlns="http://www.w3.org/2000/svg"
   xmlns:svg="http://www.w3.org/2000/svg"><sodipodi:namedview
     id="namedview1"
     pagecolor="#ab6e6e"
     bordercolor="#000000"
     borderopacity="0.43137255"
     inkscape:showpageshadow="2"
     inkscape:pageopacity="0.0"
     inkscape:pagecheckerboard="false"
     inkscape:deskcolor="#d1d1d1"
     inkscape:document-units="mm"
     inkscape:zoom="0.5"
     inkscape:cx="503"
     inkscape:cy="449"
     inkscape:window-width="1920"
     inkscape:window-height="1019"
     inkscape:window-x="0"
     inkscape:window-y="0"
     inkscape:window-maximized="1"
     inkscape:current-layer="layer1" /><defs
     id="defs1" /><g
     inkscape:label="Layer 1"
     inkscape:groupmode="layer"
     id="layer1"><g
       id="g10"><path
         fill="none"
         stroke="#000000"
         stroke-linecap="round"
         stroke-linejoin="round"
         stroke-width="2.76049"
         d="m 159.39669,117.27043 c -0.3079,1.27527 -1.68833,2.03619 -2.89016,1.51009 -0.0189,-0.009 -0.0382,-0.0168 -0.0573,-0.0255 l -9.19655,-6.04489 -0.94082,0.88077 -4.70442,4.40385 5.8044,9.64545 c 0.94896,2.09289 -1.38998,2.6735 -1.38998,2.6735 l -10.92471,2.71603 0.21252,6.44057 0.0426,1.28816 10.77728,2.22849 v 0 c 1.22708,0.46925 1.74002,1.92728 1.07733,3.06142 l -0.0423,0.0724 -5.80441,9.64544 4.70441,4.40384 0.94085,0.88078 9.19654,-6.0449 c 0.0192,-0.009 0.0388,-0.0166 0.0573,-0.0255 0,0 0.0149,-0.006 0.0428,-0.0144 1.49579,-0.48562 3.08411,0.44633 3.45322,1.97497 l 2.31303,9.5805 h 7.73286 l 2.43185,-10.07294 c 0.3124,-1.29396 1.72235,-1.98708 2.93771,-1.44411 v 0 l 9.19653,6.0449 0.94085,-0.88077 4.70441,-4.40387 -5.80441,-9.64543 -0.0423,-0.0725 c -0.66281,-1.1343 -0.14975,-2.59219 1.07733,-3.06157 v 0 l 10.77728,-2.22847 0.0426,-1.28818 0.21252,-6.44055 -10.9247,-2.71604 c 0,0 -2.33907,-0.58062 -1.38999,-2.67352 l 5.8044,-9.64543 -4.70442,-4.40386 -0.9408,-0.88076 -9.19656,6.04489 v 0 c -1.21536,0.54285 -2.6253,-0.15028 -2.93772,-1.44425 l -2.43198,-10.07268 h -7.73284 z"
         id="path5"
         style="stroke:#ffffff;stroke-width:6;stroke-dasharray:none;stroke-opacity:1;paint-order:markers fill stroke" /><rect
         style="fill:#ffffff;fill-rule:evenodd;stroke:#ffffff;stroke-width:11.136;stroke-linecap:round;stroke-linejoin:round;stroke-miterlimit:10;stroke-dasharray:none"
         id="rect1"
         width="159.85817"
         height="130.28386"
         x="6.2084074"
         y="5.5940185" /></g><g
       id="g9"><g
         id="g8"><path
           fill="#9b9b9a"
           stroke="none"
           d="m 150.81261,135.7481 h 7.04859 c 4.87457,0 7.66202,-2.9061 7.66202,-7.68887 V 126.96745 5.7237961 H 18.416559 V 44.051803"
           id="path1"
           style="stroke-width:2.88676" /><path
           fill="#9b9b9a"
           stroke="none"
           d="m 151.08945,135.7481 h 6.9158 c 4.78306,0 7.51797,-2.9061 7.51797,-7.68887 V 126.96745 5.7237961 H 21.185533 V 52.356705"
           id="path2"
           style="stroke-width:2.88676" /><path
           fill="#9b9b9a"
           stroke="none"
           stroke-linecap="round"
           stroke-linejoin="round"
           stroke-miterlimit="10"
           stroke-width="5.7735"
           d="m 151.08945,135.7481 h 6.9158 c 4.78306,0 7.51797,-2.9061 7.51797,-7.68887 V 126.96745 5.7237961 H 21.185533"
           id="path3" /><rect
           x="6.7517648"
           y="20.277945"
           width="144.33769"
           height="115.47015"
           fill="#d0cfce"
           stroke="none"
           stroke-linecap="round"
           stroke-linejoin="round"
           stroke-miterlimit="10"
           stroke-width="5.7735"
           id="rect3" /><path
           fill="none"
           stroke="#000000"
           stroke-linecap="round"
           stroke-linejoin="round"
           stroke-miterlimit="10"
           stroke-width="5.7735"
           d="m 151.08945,135.7481 h 6.9158 c 4.78306,0 7.51797,-2.9061 7.51797,-7.68887 V 126.96745 5.7237961 H 21.185533"
           id="path4" /><rect
           x="6.7517648"
           y="20.277945"
           width="144.33769"
           height="115.47015"
           fill="none"
           stroke="#000000"
           stroke-linecap="round"
           stroke-linejoin="round"
           stroke-miterlimit="10"
           stroke-width="5.7735"
           id="rect4" /><line
           x1="21.185535"
           x2="136.65569"
           y1="37.595005"
           y2="37.595005"
           fill="none"
           stroke="#000000"
           stroke-linecap="round"
           stroke-linejoin="round"
           stroke-miterlimit="10"
           stroke-width="5.7735"
           id="line5" /><line
           x1="94.995216"
           x2="136.65569"
           y1="55.243454"
           y2="55.243454"
           fill="none"
           stroke="#000000"
           stroke-linecap="round"
           stroke-linejoin="round"
           stroke-miterlimit="10"
           stroke-width="5.7735"
           id="line6" /><line
           x1="94.995216"
           x2="136.65569"
           y1="73.622833"
           y2="73.622833"
           fill="none"
           stroke="#000000"
           stroke-linecap="round"
           stroke-linejoin="round"
           stroke-miterlimit="10"
           stroke-width="5.7735"
           id="line7" /><line
           x1="94.995216"
           x2="136.65569"
           y1="92.001953"
           y2="92.001953"
           fill="none"
           stroke="#000000"
           stroke-linecap="round"
           stroke-linejoin="round"
           stroke-miterlimit="10"
           stroke-width="5.7735"
           id="line8" /><line
           x1="94.995216"
           x2="136.65569"
           y1="110.38103"
           y2="110.38103"
           fill="none"
           stroke="#000000"
           stroke-linecap="round"
           stroke-linejoin="round"
           stroke-miterlimit="10"
           stroke-width="5.7735"
           id="line9" /><path
           fill="#f1b31c"
           d="M 77.457316,110.90803 H 22.661004 c -0.304134,-9.9e-4 -0.59554,-0.12699 -0.810586,-0.35069 -0.215046,-0.22357 -0.336248,-0.52653 -0.33708,-0.84272 V 52.746022 c 9.51e-4,-0.31619 0.122153,-0.619149 0.337318,-0.84272 0.215046,-0.223571 0.506452,-0.349577 0.810586,-0.350443 h 54.796312 c 0.304133,9.89e-4 0.595539,0.126996 0.810586,0.35069 0.215046,0.223571 0.336247,0.52653 0.33708,0.84272 v 56.968601 c -9.52e-4,0.31619 -0.122153,0.61915 -0.337318,0.84272 -0.215046,0.22357 -0.506453,0.34958 -0.810586,0.35044 z"
           id="path1-6"
           style="stroke-width:1.21276;fill:#1ca1f1;fill-opacity:1" /><path
           fill="none"
           stroke="#000000"
           stroke-linejoin="round"
           stroke-miterlimit="10"
           stroke-width="2.42552"
           d="M 77.457316,110.90803 H 22.661004 c -0.304134,-9.9e-4 -0.59554,-0.12699 -0.810586,-0.35069 -0.215046,-0.22357 -0.336248,-0.52653 -0.33708,-0.84272 V 52.746022 c 9.51e-4,-0.31619 0.122153,-0.619149 0.337318,-0.84272 0.215046,-0.223571 0.506452,-0.349577 0.810586,-0.350443 h 54.796312 c 0.304133,9.89e-4 0.595539,0.126996 0.810586,0.35069 0.215046,0.223571 0.336247,0.52653 0.33708,0.84272 v 56.968601 c -9.52e-4,0.31619 -0.122153,0.61915 -0.337318,0.84272 -0.215046,0.22357 -0.506453,0.34958 -0.810586,0.35044 z"
           id="path4-5" /><rect
           x="21.185535"
           y="52.356701"
           width="57.747486"
           height="57.747486"
           fill="none"
           stroke="#000000"
           stroke-linecap="round"
           stroke-linejoin="round"
           stroke-miterlimit="10"
           stroke-width="5.7735"
           id="rect5"
           style="stroke-linecap:round;stroke-width:5;stroke-dasharray:none;stroke-linejoin:round;stroke-miterlimit:10" /><g
           id="g7"><circle
             style="fill:#ffffff;fill-opacity:1;fill-rule:evenodd;stroke:#000000;stroke-width:1.5;stroke-linecap:round;stroke-linejoin:round;stroke-miterlimit:10;stroke-dasharray:none;stroke-opacity:1"
             id="path6"
             cx="50.05928"
             cy="81.230446"
             r="21.479719" /><circle
             cx="50.05928"
             cy="81.230446"
             fill="#ffffff"
             id="circle1"
             style="fill:#1ca1f1;fill-opacity:1;stroke:#000000;stroke-width:1.5;stroke-dasharray:none;stroke-opacity:1"
             r="14.963189" /><circle
             style="fill:#ffffff;fill-opacity:1;fill-rule:evenodd;stroke:#000000;stroke-width:1.3;stroke-linecap:round;stroke-linejoin:round;stroke-miterlimit:10;stroke-dasharray:none;stroke-opacity:1"
             id="path7"
             cx="50.059277"
             cy="81.230446"
             r="5.0691147" /></g></g><g
         id="g6"><g
           id="color-6"
           transform="matrix(1.2657075,0,0,1.2657075,120.12178,92.697424)"><circle
             cx="36.051998"
             cy="34.906399"
             r="5.6135998"
             fill="#ffffff"
             id="circle1-2" /><path
             fill="#d0cfce"
             d="m 51.2579,29.8111 c 0,0 -1.8149,-0.4504 -1.0786,-2.0742 l 4.5037,-7.4841 -3.6502,-3.417 -0.73,-0.6833 -7.1357,4.6903 c -0.9431,0.4213 -2.037,-0.1166 -2.2794,-1.1205 l -1.887,-7.8158 h -6 l -1.8809,7.7858 c -0.2389,0.9894 -1.3101,1.5798 -2.2425,1.1716 -0.0148,-0.0063 -0.0296,-0.0131 -0.0445,-0.0198 l -7.1357,-4.6904 -0.73,0.6833 -3.6502,3.417 4.5037,7.4841 c 0.7364,1.6238 -1.0785,2.0743 -1.0785,2.0743 l -8.4766,2.1074 0.1649,4.9972 0.033,0.9995 8.3622,1.7291 c 0.952,0.3641 1.3501,1.4954 0.8358,2.3755 l -0.0328,0.0562 -4.5037,7.484 3.6502,3.417 0.73,0.6833 7.1357,-4.6902 c 0.0149,-0.0068 0.03,-0.0129 0.0445,-0.02 0,0 0.0115,-0.0042 0.0332,-0.0111 1.1606,-0.3768 2.393,0.3463 2.6794,1.5325 l 1.7947,7.4336 h 6 l 1.887,-7.8158 c 0.2424,-1.0039 1.3364,-1.5417 2.2794,-1.1205 l 7.1357,4.6903 0.73,-0.6833 3.6502,-3.417 -4.5037,-7.4841 -0.0328,-0.0562 c -0.5143,-0.88 -0.1162,-2.0112 0.8358,-2.3755 l 8.3622,-1.729 0.033,-0.9995 0.1649,-4.9973 z M 36,44.9064 c -5.5228,0 -10,-4.4772 -10,-10 0,-5.5228 4.4772,-10 10,-10 5.5228,0 10,4.4772 10,10 0,5.5228 -4.4772,10 -10,10 z"
             id="path1-9" /><path
             fill="#9b9b9a"
             d="m 36,24.9064 c -5.5228,0 -10,4.4772 -10,10 0,5.5228 4.4772,10 10,10 5.5228,0 10,-4.4772 10,-10 0,-5.5228 -4.4772,-10 -10,-10 z m 0,15 c -2.7614,0 -5,-2.2386 -5,-5 0,-2.7614 2.2386,-5 5,-5 2.7614,0 5,2.2385 5,5 0,2.7615 -2.2386,5 -5,5 z"
             id="path2-1" /></g><g
           id="line-2"
           transform="matrix(1.2657075,0,0,1.2657075,120.12178,92.697424)"><circle
             cx="36"
             cy="34.906399"
             r="5"
             fill="none"
             stroke="#000000"
             stroke-linecap="round"
             stroke-linejoin="round"
             stroke-width="2"
             id="circle2" /><circle
             cx="36"
             cy="34.906399"
             r="10"
             fill="none"
             stroke="#000000"
             stroke-linecap="round"
             stroke-linejoin="round"
             stroke-width="2"
             id="circle3" /><path
             fill="none"
             stroke="#000000"
             stroke-linecap="round"
             stroke-linejoin="round"
             stroke-width="2"
             d="m 31.1191,19.6921 c -0.2389,0.9895 -1.31,1.5799 -2.2425,1.1717 -0.0147,-0.0065 -0.0296,-0.0131 -0.0445,-0.0199 l -7.1357,-4.6903 -0.73,0.6834 -3.6502,3.417 4.5037,7.484 c 0.7363,1.6239 -1.0785,2.0744 -1.0785,2.0744 l -8.4766,2.1074 0.1649,4.9973 0.033,0.9995 8.3622,1.7291 v 0 c 0.9521,0.3641 1.3501,1.4954 0.8359,2.3754 l -0.0328,0.0562 -4.5037,7.484 3.6502,3.417 0.73,0.6834 7.1357,-4.6903 c 0.0149,-0.0068 0.03,-0.0129 0.0445,-0.0199 0,0 0.0116,-0.0042 0.0332,-0.0112 1.1606,-0.3768 2.393,0.3463 2.6794,1.5324 l 1.7947,7.4336 h 6 l 1.8869,-7.8157 c 0.2424,-1.004 1.3364,-1.5418 2.2794,-1.1205 v 0 l 7.1357,4.6903 0.73,-0.6834 3.6502,-3.417 -4.5037,-7.484 -0.0328,-0.0562 c -0.5143,-0.8801 -0.1162,-2.0113 0.8359,-2.3755 v 0 l 8.3622,-1.7291 0.033,-0.9995 0.1649,-4.9973 -8.4766,-2.1074 c 0,0 -1.8149,-0.4505 -1.0785,-2.0744 l 4.5037,-7.484 -3.6502,-3.417 -0.73,-0.6834 -7.1357,4.6903 v 0 c -0.943,0.4212 -2.037,-0.1166 -2.2794,-1.1206 L 39,11.9064 h -6 z"
             id="path3-7" /></g></g></g></g></svg>
